<svg xmlns="http://www.w3.org/2000/svg" viewBox="0 0 64 64">
  <defs>
    <linearGradient id="sky4" x1="0" y1="0" x2="0" y2="1">
      <stop offset="0%" stop-color="#E0F0FF"/>
      <stop offset="100%" stop-color="#6CB4EE"/>
    </linearGradient>
  </defs>
  <circle cx="32" cy="32" r="30" fill="url(#sky4)" stroke="#fff" stroke-width="2"/>
  <!-- Snowflake -->
  <g stroke="#fff" stroke-width="3" stroke-linecap="round">
    <!-- Main arms -->
    <line x1="32" y1="12" x2="32" y2="52"/>
    <line x1="14.7" y1="22" x2="49.3" y2="42"/>
    <line x1="14.7" y1="42" x2="49.3" y2="22"/>
    <!-- Branches -->
    <line x1="32" y1="18" x2="26" y2="14"/>
    <line x1="32" y1="18" x2="38" y2="14"/>
    <line x1="32" y1="46" x2="26" y2="50"/>
    <line x1="32" y1="46" x2="38" y2="50"/>
    <line x1="19" y1="25" x2="15" y2="30"/>
    <line x1="19" y1="25" x2="19" y2="19"/>
    <line x1="45" y1="39" x2="49" y2="34"/>
    <line x1="45" y1="39" x2="45" y2="45"/>
    <line x1="19" y1="39" x2="15" y2="34"/>
    <line x1="19" y1="39" x2="19" y2="45"/>
    <line x1="45" y1="25" x2="49" y2="30"/>
    <line x1="45" y1="25" x2="45" y2="19"/>
  </g>
  <!-- Center crystal -->
  <circle cx="32" cy="32" r="4" fill="#fff" opacity="0.9"/>
</svg>